HIERARCHY
ROOT Hips
{
	OFFSET -0.001795 -0.223333 0.028219
	CHANNELS 6 Xposition Yposition Zposition Zrotation Yrotation Xrotation 
	JOINT LeftUpLeg
	{
		OFFSET 0.069520 -0.091406 -0.006815
		CHANNELS 3 Zrotation Yrotation Xrotation
		JOINT LeftLeg
		{
			OFFSET 0.034277 -0.375199 -0.004496
			CHANNELS 3 Zrotation Yrotation Xrotation
			JOINT LeftFoot
			{
				OFFSET -0.013596 -0.397961 -0.043693
				CHANNELS 3 Zrotation Yrotation Xrotation
				JOINT LeftToe
				{
					OFFSET 0.026358 -0.055791 0.119288
					CHANNELS 3 Zrotation Yrotation Xrotation
					End Site
					{
						OFFSET 0.000000 0.000000 0.000000
					}
				}
			}
		}
	}
	JOINT RightUpLeg
	{
		OFFSET -0.067670 -0.090522 -0.004320
		CHANNELS 3 Zrotation Yrotation Xrotation
		JOINT RightLeg
		{
			OFFSET -0.038290 -0.382569 -0.008850
			CHANNELS 3 Zrotation Yrotation Xrotation
			JOINT RightFoot
			{
				OFFSET 0.015774 -0.398415 -0.042312
				CHANNELS 3 Zrotation Yrotation Xrotation
				JOINT RightToe
				{
					OFFSET -0.025372 -0.048144 0.123348
					CHANNELS 3 Zrotation Yrotation Xrotation
					End Site
					{
						OFFSET 0.000000 0.000000 0.000000
					}
				}
			}
		}
	}
	JOINT Spine
	{
		OFFSET -0.002533 0.108963 -0.026696
		CHANNELS 3 Zrotation Yrotation Xrotation
		JOINT Spine1
		{
			OFFSET 0.005487 0.135180 0.001092
			CHANNELS 3 Zrotation Yrotation Xrotation
			JOINT Spine2
			{
				OFFSET 0.001457 0.052922 0.025425
				CHANNELS 3 Zrotation Yrotation Xrotation
				JOINT Neck
				{
					OFFSET -0.002778 0.213870 -0.042857
					CHANNELS 3 Zrotation Yrotation Xrotation
					JOINT Head
					{
						OFFSET 0.005152 0.064970 0.051349
						CHANNELS 3 Zrotation Yrotation Xrotation
						End Site
						{
							OFFSET 0.000000 0.000000 0.000000
						}
					}
				}
				JOINT LeftShoulder
				{
					OFFSET 0.078845 0.121749 -0.034090
					CHANNELS 3 Zrotation Yrotation Xrotation
					JOINT LeftArm
					{
						OFFSET 0.090977 0.030469 -0.008868
						CHANNELS 3 Zrotation Yrotation Xrotation
						JOINT LeftForeArm
						{
							OFFSET 0.259612 -0.012772 -0.027456
							CHANNELS 3 Zrotation Yrotation Xrotation
							JOINT LeftHand
							{
								OFFSET 0.249234 0.008986 -0.001171
								CHANNELS 3 Zrotation Yrotation Xrotation
								End Site
								{
									OFFSET 0.000000 0.000000 0.000000
								}
							}
						}
					}
				}
				JOINT RightShoulder
				{
					OFFSET -0.081759 0.118833 -0.038615
					CHANNELS 3 Zrotation Yrotation Xrotation
					JOINT RightArm
					{
						OFFSET -0.096012 0.032551 -0.009143
						CHANNELS 3 Zrotation Yrotation Xrotation
						JOINT RightForeArm
						{
							OFFSET -0.253742 -0.013329 -0.021401
							CHANNELS 3 Zrotation Yrotation Xrotation
							JOINT RightHand
							{
								OFFSET -0.255298 0.007772 -0.005559
								CHANNELS 3 Zrotation Yrotation Xrotation
								End Site
								{
									OFFSET 0.000000 0.000000 0.000000
								}
							}
						}
					}
				}
			}
		}
	}
}
MOTION
Frames: 5
Frame Time: 0.050000
0.000000 0.958198 0.000000 -0.044444 -21.831120 4.888785 3.248892 -0.429056 -10.365405 -0.366326 0.047898 5.298536 14.339773 22.246338 29.594612 0.000000 0.000000 0.000000 -10.634668 1.228021 -12.609768 7.675771 -0.360705 10.135168 -6.710121 -19.325906 13.608891 0.000000 0.000000 0.000000 4.595981 -0.681195 29.739683 -8.776637 2.593620 -17.400168 -0.973545 11.906574 27.856346 16.876253 -13.491838 -7.551939 0.000000 0.000000 0.000000 3.164127 -16.456649 5.326212 -49.814330 -8.452755 -4.701297 -131.890531 -50.058397 103.140647 0.000000 0.000000 0.000000 6.142868 13.178258 5.106886 30.682322 45.468607 5.799931 -54.744273 70.899654 -35.472266 0.000000 0.000000 0.000000 
-0.000215 0.957904 -0.001194 -0.305626 -21.313994 5.102474 4.580150 -0.270843 -10.358395 -1.436860 0.263752 5.710784 11.754454 19.466288 26.568046 0.000000 0.000000 0.000000 -9.410562 1.230804 -13.072042 5.891722 -0.135142 10.717841 -6.673747 -19.351026 13.915472 0.000000 0.000000 0.000000 5.201729 -0.910850 29.219074 -7.475461 2.199107 -17.332146 -0.981973 12.202350 28.823660 18.153269 -14.155482 -9.030893 0.000000 0.000000 0.000000 0.239444 -16.061929 5.571649 -46.327571 -8.352875 -4.684116 -136.432489 -47.043806 105.730665 0.000000 0.000000 0.000000 4.138669 12.169035 4.560600 36.176288 48.059381 8.513047 -50.489629 67.510898 -29.723666 0.000000 0.000000 0.000000 
-0.000509 0.957538 -0.001882 0.204504 -19.603833 5.386940 4.201332 -0.364475 -10.884926 -1.988901 0.363344 6.115937 10.852071 18.863846 23.179269 0.000000 0.000000 0.000000 -10.017428 1.138114 -11.978789 5.800488 -0.252890 7.582435 -7.435851 -20.716794 16.174000 0.000000 0.000000 0.000000 4.980165 -1.026661 27.851443 -5.206092 1.550800 -15.994187 -2.049661 11.818479 28.178210 18.507714 -14.279340 -9.505677 0.000000 0.000000 0.000000 -1.023975 -16.435813 5.838826 -45.045670 -8.430548 -4.549038 -137.423663 -49.908688 110.278091 0.000000 0.000000 0.000000 6.328568 13.019144 5.168309 35.858413 48.893403 8.673307 -46.054019 66.754194 -26.023883 0.000000 0.000000 0.000000 
-0.000782 0.957146 -0.002267 0.371930 -19.131961 4.739988 4.319784 -0.343637 -10.241398 -1.850046 0.330378 6.266250 9.318250 16.932283 22.200053 0.000000 0.000000 0.000000 -10.470825 1.104385 -11.756997 6.113322 -0.291238 8.042401 -7.546452 -20.932283 17.010726 0.000000 0.000000 0.000000 6.269484 -1.379164 28.239220 -6.029917 1.876138 -14.856880 -2.228149 11.291171 28.245530 19.200139 -15.114787 -8.952997 0.000000 0.000000 0.000000 0.290631 -16.384127 5.652757 -45.953633 -7.854060 -4.827792 -141.430731 -49.683842 116.731134 0.000000 0.000000 0.000000 6.695416 12.068869 4.788005 37.807369 49.519242 9.627731 -43.190055 66.001275 -23.696872 0.000000 0.000000 0.000000 
-0.001032 0.956776 -0.002385 0.791470 -19.189727 4.258641 3.715375 -0.404859 -10.047175 -1.484410 0.273055 7.105258 8.859554 16.366882 20.875742 0.000000 0.000000 0.000000 -10.802065 1.089055 -11.447837 5.808546 -0.260158 7.848820 -7.489721 -20.904418 17.429578 0.000000 0.000000 0.000000 6.572584 -1.439094 28.223495 -6.528698 2.076817 -14.073107 -1.763601 11.047665 28.128307 18.500119 -14.502010 -8.988069 0.000000 0.000000 0.000000 0.398383 -15.339525 5.286396 -45.760214 -8.924220 -4.397273 -145.619373 -50.032834 124.361144 0.000000 0.000000 0.000000 7.058904 12.764704 5.068730 39.916804 50.059562 10.686197 -43.231670 64.937405 -23.209753 0.000000 0.000000 0.000000 
